<svg width="18" height="14" viewBox="0 0 18 14" fill="none" xmlns="http://www.w3.org/2000/svg">
<path d="M7.95829 9.08333C7.95829 9.65918 8.42476 10.125 8.99996 10.125H11.0833C11.6585 10.125 12.125 9.65918 12.125 9.08333C12.125 8.50749 11.6585 8.04167 11.0833 8.04167H8.99996C8.42379 8.04167 7.95829 8.50716 7.95829 9.08333ZM9.37756 7H12.125C12.7002 7 13.1666 6.53418 13.1666 5.95833C13.1666 5.38249 12.7002 4.91667 12.125 4.91667H9.52079V6.21875C9.52079 6.49544 9.46545 6.75586 9.37756 7ZM9.52079 3.875H16.2916C16.8668 3.875 17.3333 3.40918 17.3333 2.83333C17.3333 2.25749 16.8668 1.79167 16.2916 1.79167H9.49475C9.50452 1.87826 9.52079 1.96419 9.52079 2.05208V3.875ZM11.0833 12.2083C11.0833 11.6325 10.6168 11.1667 10.0416 11.1667H7.95829C7.3831 11.1667 6.91663 11.6325 6.91663 12.2083C6.91663 12.7842 7.3831 13.25 7.95829 13.25H10.0416C10.6178 13.25 11.0833 12.7845 11.0833 12.2083ZM7.2454 10.2487C7.04683 9.91667 6.91663 9.51628 6.91663 9.08333C6.91663 8.89564 6.95178 8.71745 6.99833 8.5446C5.79032 8.45182 4.83329 7.45247 4.83329 6.21875V3.8457C4.83329 3.58854 5.06767 3.35417 5.32483 3.35417C5.58199 3.35417 5.87496 3.58854 5.84566 3.8457V6.11523C5.84566 6.64844 6.2428 7.49154 7.17704 7.49154C7.89644 7.49154 8.47913 6.93815 8.47913 6.21875V2.05208C8.47913 1.33301 7.89644 0.75 7.17704 0.75H5.11324C4.03577 0.75 3.01135 1.27083 2.37463 2.14323L1.51363 3.32812C0.963078 4.08659 0.666626 4.99805 0.666626 5.93555V8.82292C0.666626 11.2676 2.64872 13.25 5.09371 13.25H6.16402C5.98564 12.944 5.87496 12.5892 5.87496 12.2083C5.87496 11.3001 6.4609 10.5352 7.2454 10.2487Z" fill="#4F4F4F"/>
</svg>
