<svg width="20" height="20" viewBox="0 0 20 20" fill="none" xmlns="http://www.w3.org/2000/svg">
<path d="M9.22649 17.9589C7.52287 15.8636 3.73376 10.7853 3.73376 7.9329C3.73376 4.47212 6.5392 1.66669 9.99998 1.66669C13.4595 1.66669 16.2662 4.47212 16.2662 7.9329C16.2662 10.7853 12.4477 15.8636 10.7735 17.9589C10.372 18.4582 9.62792 18.4582 9.22649 17.9589ZM9.99998 10.0216C11.1521 10.0216 12.0887 9.08497 12.0887 7.9329C12.0887 6.78083 11.1521 5.84416 9.99998 5.84416C8.84791 5.84416 7.91124 6.78083 7.91124 7.9329C7.91124 9.08497 8.84791 10.0216 9.99998 10.0216Z" fill="#4F4F4F"/>
</svg>
